<svg xmlns="http://www.w3.org/2000/svg" width="200" height="200" fill="none" xmlns:v="https://vecta.io/nano"><g clip-path="url(#A)"><circle cx="100" cy="100" r="92.5" stroke="#ffffff" stroke-width="15"/><path d="M87.2 160.6c0-3.6 1.267-6.667 3.8-9.2s5.533-3.8 9-3.8c3.6 0 6.667 1.267 9.2 3.8s3.8 5.6 3.8 9.2c0 3.467-1.267 6.467-3.8 9s-5.6 3.8-9.2 3.8c-3.467 0-6.467-1.267-9-3.8s-3.8-5.533-3.8-9zm4-88.8V37.4H109v34.4l-3.6 60.2H94.8l-3.6-60.2z" fill="#ffffff"/></g><defs><clipPath id="A"><path fill="#fff" d="M0 0h200v200H0z"/></clipPath></defs></svg>