<svg xmlns="http://www.w3.org/2000/svg" width="208" height="209" fill="#2d3031" xmlns:v="https://vecta.io/nano"><path fill-rule="evenodd" d="M91.805 25.894H26.764c-14.503 0-26.26 11.757-26.26 26.26v130.082c0 14.503 11.757 26.26 26.26 26.26h130.082c14.503 0 26.26-11.757 26.26-26.26v-65.041h-20v65.041a6.26 6.26 0 0 1-6.26 6.26H26.764a6.26 6.26 0 0 1-6.26-6.26V52.155a6.26 6.26 0 0 1 6.26-6.26h65.041v-20z"/><path d="M84.734 109.916c-3.905 3.905-3.905 10.237 0 14.142s10.237 3.905 14.142 0l-14.142-14.142zm123.137-98.995a10 10 0 0 0-10-10h-90c-5.523 0-10 4.477-10 10s4.477 10 10 10h80v80a10 10 0 1 0 20 0v-90zM98.876 124.058L204.942 17.992 190.8 3.85 84.734 109.916l14.142 14.142z"/></svg>