<?xml version="1.0" encoding="UTF-8"?><svg id="a" xmlns="http://www.w3.org/2000/svg" viewBox="0 0 36 36"><defs><style>.b{fill:#005d83;}</style></defs><path class="b" d="m4.35,22.02c0,1.6,0,2.86.09,3.56.05.48.15.85.66.92.24.03.61.07.85.07.22,0,.29.05.29.13,0,.12-.12.17-.37.17-1.07,0-2.14-.05-2.58-.05s-1.51.05-2.16.05c-.24,0-.36-.03-.36-.17,0-.08.07-.13.25-.13.26,0,.46-.03.61-.07.34-.07.42-.43.49-.92.08-.7.08-1.95.08-3.56v-2.94c0-2.54,0-3.01-.03-3.54-.03-.57-.17-.84-.73-.95-.13-.03-.42-.05-.66-.05-.17,0-.29-.03-.29-.13,0-.13.14-.17.39-.17.44,0,.93.02,1.38.02.44.02.83.03,1.07.03.65,0,4.09,0,4.48-.02.32-.02.53-.02.7-.07.1-.03.19-.1.27-.1.07,0,.12.07.12.15,0,.12-.08.32-.13.75-.02.17-.05,1.15-.09,1.35-.02.13-.05.23-.17.23s-.15-.08-.17-.27c0-.13,0-.4-.1-.63-.12-.23-.48-.48-1.12-.5l-2.61-.05c-.1,0-.15.05-.15.23v4.18c0,.1.02.15.12.15l2.17-.02c.29,0,.53,0,.76-.02.32-.02.56-.08.73-.3.08-.1.12-.17.22-.17.07,0,.1.05.1.15s-.08.52-.13,1.04c-.03.33-.07,1.1-.07,1.22,0,.15,0,.32-.17.32-.1,0-.14-.12-.14-.23s-.03-.32-.1-.52c-.08-.23-.34-.53-.87-.6-.42-.05-2.23-.05-2.51-.05-.08,0-.12.03-.12.15v1.35Z"/><path class="b" d="m9.88,26.66c-.27-.12-.32-.2-.32-.57,0-.92.07-1.92.08-2.19.02-.25.07-.43.2-.43.15,0,.17.15.17.28,0,.22.07.57.15.85.37,1.24,1.38,1.69,2.43,1.69,1.53,0,2.28-1.02,2.28-1.9,0-.82-.25-1.59-1.66-2.67l-.78-.6c-1.87-1.44-2.51-2.61-2.51-3.96,0-1.84,1.56-3.16,3.92-3.16,1.1,0,1.82.17,2.26.28.15.03.24.08.24.2,0,.22-.07.7-.07,2.01,0,.37-.05.5-.19.5-.12,0-.17-.1-.17-.3,0-.15-.08-.67-.44-1.1-.25-.32-.75-.82-1.85-.82-1.26,0-2.02.72-2.02,1.72,0,.77.39,1.35,1.8,2.4l.47.35c2.05,1.52,2.79,2.67,2.79,4.26,0,.97-.37,2.12-1.6,2.91-.85.54-1.8.69-2.7.69-.98,0-1.75-.12-2.48-.43"/><path class="b" d="m19.52,25.28c-1.66-1.44-2.11-3.31-2.11-4.93,0-1.14.36-3.11,1.99-4.58,1.22-1.1,2.84-1.77,5.37-1.77,1.05,0,1.68.07,2.46.17.64.08,1.19.23,1.7.28.19.02.26.1.26.2,0,.13-.05.33-.09.92-.03.55-.02,1.47-.05,1.8-.02.25-.05.38-.2.38-.13,0-.17-.13-.17-.37-.02-.52-.24-1.1-.66-1.54-.56-.58-1.88-1.04-3.45-1.04-1.48,0-2.44.37-3.19,1.04-1.24,1.12-1.56,2.71-1.56,4.33,0,3.98,3.07,5.95,5.35,5.95,1.51,0,2.43-.17,3.11-.94.29-.32.51-.8.58-1.1.05-.27.08-.33.22-.33.12,0,.15.12.15.25,0,.2-.2,1.65-.37,2.22-.08.28-.15.37-.44.48-.68.27-1.97.38-3.06.38-2.33,0-4.28-.5-5.82-1.82"/><path class="b" d="m31.93,19.08c0-2.54,0-3.01-.03-3.54-.03-.57-.17-.83-.73-.95-.14-.03-.42-.05-.66-.05-.19,0-.29-.03-.29-.15s.12-.15.37-.15c.9,0,1.97.05,2.41.05.41,0,1.48-.05,2.14-.05.24,0,.36.03.36.15s-.1.15-.31.15c-.19,0-.29.02-.49.05-.46.08-.59.37-.63.95-.03.53-.03,1-.03,3.54v3.09c0,.72.05,1.52.05,2.35,0,.95-.07,2.02-.41,2.96-.36,1.02-1.26,2.17-2.89,3.16-.22.13-.49.27-.85.43-.12.07-.25.1-.34.1-.07,0-.14-.05-.14-.13s.09-.15.37-.3c.22-.12.48-.3.82-.63,1.29-1.29,1.27-2.96,1.27-6.23v-4.79Z"/></svg>