<svg xmlns="http://www.w3.org/2000/svg" xmlns:xlink="http://www.w3.org/1999/xlink" viewBox="0 0 266.67 57.17" xmlns:v="https://vecta.io/nano"><path d="M12.83 26.69c0 5.34 0 9.51.29 11.85.17 1.61.5 2.84 2.2 3.06.79.11 2.04.22 2.83.22.73 0 .96.17.96.44 0 .39-.39.56-1.24.56-3.56 0-7.12-.16-8.59-.16s-5.03.16-7.18.16c-.8 0-1.19-.11-1.19-.56 0-.28.22-.44.84-.44.85 0 1.53-.11 2.04-.22 1.13-.22 1.41-1.44 1.64-3.06.28-2.33.28-6.5.28-11.85v-9.78L5.6 5.12c-.11-1.89-.57-2.78-2.43-3.17-.45-.11-1.41-.17-2.2-.17-.57 0-.96-.11-.96-.44C.01.9.46.78 1.31.78l4.58.06 3.56.11L24.37.89c1.08-.06 1.75-.06 2.32-.22.34-.11.62-.34.9-.34.23 0 .4.22.4.5 0 .39-.28 1.05-.45 2.5-.06.56-.17 3.83-.29 4.51-.06.45-.17.78-.57.78s-.51-.28-.57-.89c0-.44 0-1.33-.34-2.11-.39-.78-1.58-1.61-3.73-1.67l-8.7-.16c-.34 0-.51.16-.51.78v13.9c0 .33.06.5.39.5l7.24-.06c.96 0 1.76 0 2.55-.06 1.07-.06 1.87-.28 2.43-1 .28-.34.39-.56.73-.56.23 0 .34.16.34.5s-.28 1.72-.45 3.45a78.36 78.36 0 0 0-.23 4.06c0 .5 0 1.06-.57 1.06-.34 0-.45-.39-.45-.78s-.11-1.06-.34-1.72c-.28-.78-1.13-1.78-2.88-2-1.41-.17-7.41-.17-8.37-.17-.28 0-.39.11-.39.5v4.5zm18.41 15.46c-.9-.39-1.07-.67-1.07-1.89l.28-7.28c.06-.83.22-1.44.68-1.44.51 0 .56.5.56.95 0 .72.23 1.89.51 2.83 1.24 4.12 4.58 5.62 8.09 5.62 5.09 0 7.57-3.39 7.57-6.34 0-2.73-.85-5.28-5.54-8.9l-2.6-2c-6.22-4.78-8.37-8.67-8.37-13.18C31.35 4.4 36.55.01 44.41.01c3.67 0 6.05.56 7.52.95.51.11.8.28.8.67 0 .72-.23 2.34-.23 6.68 0 1.22-.17 1.67-.62 1.67-.4 0-.57-.34-.57-1 0-.5-.28-2.22-1.47-3.67-.85-1.06-2.49-2.72-6.16-2.72-4.18 0-6.73 2.39-6.73 5.73 0 2.56 1.3 4.5 5.99 8l1.58 1.17c6.84 5.06 9.27 8.9 9.27 14.18 0 3.22-1.24 7.06-5.32 9.67-2.82 1.78-5.99 2.28-8.99 2.28-3.28 0-5.82-.39-8.25-1.45m32.08-4.63c-5.54-4.78-7.01-11.01-7.01-16.41 0-3.78 1.19-10.34 6.61-15.24C66.99 2.22 72.36 0 80.78 0c3.5 0 5.6.22 8.2.56 2.15.28 3.96.78 5.65.94.62.06.85.34.85.67 0 .44-.17 1.11-.29 3.06-.11 1.84-.06 4.89-.17 6.01-.06.83-.17 1.28-.68 1.28-.45 0-.57-.44-.57-1.22a7.93 7.93 0 0 0-2.2-5.12c-1.86-1.94-6.27-3.45-11.48-3.45-4.92 0-8.14 1.22-10.63 3.45-4.13 3.73-5.2 9.01-5.2 14.4 0 13.23 10.23 19.8 17.81 19.8 5.04 0 8.09-.56 10.35-3.11.96-1.06 1.7-2.67 1.92-3.67.17-.89.28-1.11.74-1.11.4 0 .51.39.51.83 0 .67-.68 5.51-1.24 7.4-.28.95-.51 1.23-1.47 1.61-2.26.89-6.56 1.28-10.18 1.28-7.74 0-14.24-1.67-19.39-6.06m41.33-20.64l-.11-11.79c-.11-1.89-.57-2.78-2.43-3.17-.45-.11-1.41-.17-2.2-.17-.62 0-.96-.11-.96-.5s.4-.5 1.24-.5l8.03.17 7.12-.17c.79 0 1.19.11 1.19.5s-.34.5-1.02.5c-.62 0-.96.06-1.64.17-1.53.28-1.98 1.22-2.09 3.17-.11 1.78-.11 3.34-.11 11.79V27.2c0 2.39.17 5.06.17 7.84 0 3.17-.23 6.73-1.36 9.85-1.19 3.39-4.18 7.23-9.61 10.51-.73.44-1.64.89-2.83 1.44-.4.22-.85.34-1.13.34-.22 0-.45-.17-.45-.44s.29-.5 1.24-1c.73-.39 1.58-1 2.72-2.11 4.29-4.28 4.24-9.85 4.24-20.75V16.92z" fill="#005d83"/><path d="M125.28 17.92h-1.27V7.03h6.07v1.12h-4.8v3.98h4.51v1.12h-4.51v4.65zm7.65 0h-1.24V6.33h1.24v11.59z"/><use xlink:href="#B"/><path d="M148.49 9.61a4.88 4.88 0 0 1 .98.09l-.17 1.15c-.34-.07-.64-.11-.89-.11-.66 0-1.22.27-1.69.8s-.7 1.2-.7 2v4.38h-1.24V9.76h1.02l.14 1.51h.06c.3-.53.67-.94 1.09-1.23.43-.29.9-.43 1.41-.43zm2.4-2.06c0-.28.07-.49.21-.62s.31-.2.52-.2a.71.71 0 0 1 .51.2c.14.13.22.34.22.62s-.07.49-.22.62a.7.7 0 0 1-.51.2c-.21 0-.38-.07-.52-.2-.14-.14-.21-.34-.21-.62zm1.34 10.37h-1.24V9.76h1.24v8.16zm8.17-1.09h-.07c-.57.83-1.42 1.24-2.56 1.24-1.07 0-1.9-.36-2.49-1.09s-.89-1.77-.89-3.11.3-2.39.89-3.13c.6-.75 1.42-1.12 2.49-1.12s1.96.4 2.55 1.21h.1l-.05-.59-.03-.57V6.35h1.24v11.59h-1.01l-.16-1.09zm-2.47.21c.84 0 1.46-.23 1.84-.69s.57-1.2.57-2.22v-.26c0-1.16-.19-1.98-.58-2.48-.38-.49-1-.74-1.84-.74-.72 0-1.28.28-1.66.85-.39.56-.58 1.36-.58 2.39s.19 1.83.57 2.36.94.8 1.68.8z"/><use xlink:href="#C"/><path d="M182.97 15.02c0 .96-.35 1.71-1.04 2.24-.69.54-1.64.8-2.83.8-1.29 0-2.28-.17-2.98-.5v-1.22c.45.19.93.34 1.46.45a7.65 7.65 0 0 0 1.56.16c.84 0 1.48-.16 1.91-.48s.64-.77.64-1.34c0-.38-.08-.69-.23-.93s-.4-.46-.76-.67c-.36-.2-.9-.43-1.62-.69-1.01-.36-1.74-.79-2.17-1.29s-.65-1.14-.65-1.94c0-.84.32-1.51.95-2 .63-.5 1.46-.74 2.5-.74s2.08.2 2.99.6l-.39 1.1c-.9-.38-1.77-.57-2.62-.57-.67 0-1.19.14-1.57.43s-.57.69-.57 1.2c0 .38.07.69.21.93s.37.46.7.66.84.42 1.52.67c1.14.41 1.93.84 2.36 1.31s.64 1.07.64 1.82z"/><use xlink:href="#D"/><use xlink:href="#C" x="26.2"/><use xlink:href="#D" x="13.87"/><use xlink:href="#E"/><path d="M221.62 8.01c-1.2 0-2.14.4-2.83 1.2s-1.04 1.89-1.04 3.27.33 2.53 1 3.3c.67.78 1.62 1.17 2.86 1.17.76 0 1.63-.14 2.6-.41v1.11c-.75.28-1.69.42-2.79.42-1.6 0-2.84-.49-3.71-1.46s-1.31-2.36-1.31-4.15c0-1.12.21-2.1.63-2.95.42-.84 1.02-1.49 1.82-1.95.79-.46 1.72-.69 2.8-.69 1.14 0 2.14.21 2.99.63l-.54 1.09c-.82-.39-1.65-.58-2.47-.58z"/><use xlink:href="#B" x="90.83"/><path d="M236.84 17.92h-1.24V6.33h1.24v11.59zm3.85 0h-1.24V6.33h1.24v11.59z"/><use xlink:href="#E" x="39.06"/><path d="M258.55 9.76v.78l-1.51.18a2.53 2.53 0 0 1 .37.68c.11.28.16.6.16.95 0 .8-.27 1.44-.82 1.91s-1.3.71-2.25.71a3.85 3.85 0 0 1-.69-.06c-.53.28-.79.63-.79 1.05 0 .22.09.39.28.49s.5.16.95.16h1.44c.88 0 1.56.19 2.04.56.47.37.71.91.71 1.62 0 .9-.36 1.59-1.09 2.07-.73.47-1.78.71-3.17.71-1.07 0-1.89-.2-2.47-.6s-.87-.96-.87-1.68c0-.5.16-.93.48-1.29s.76-.61 1.34-.74a1.22 1.22 0 0 1-.52-.44c-.14-.2-.21-.43-.21-.69a1.29 1.29 0 0 1 .24-.78c.16-.22.41-.44.75-.65-.42-.17-.77-.47-1.03-.89-.27-.42-.4-.89-.4-1.43 0-.89.27-1.58.8-2.07.54-.48 1.3-.73 2.28-.73.43 0 .81.05 1.15.15h2.82zm-6.51 9.53c0 .44.19.78.56 1.01s.91.34 1.6.34c1.04 0 1.81-.16 2.3-.47.5-.31.75-.73.75-1.26 0-.44-.14-.75-.41-.92s-.79-.26-1.54-.26h-1.48c-.56 0-1 .13-1.31.4s-.47.65-.47 1.15zm.67-6.92c0 .57.16 1 .48 1.3.32.29.77.44 1.35.44 1.21 0 1.81-.59 1.81-1.76s-.61-1.84-1.83-1.84c-.58 0-1.03.16-1.34.47s-.47.78-.47 1.39z"/><use xlink:href="#E" x="55.97"/><use xlink:href="#C" x="-40.36" y="18.3"/><path d="M134.94 35.35a4.23 4.23 0 0 0 .63-.05c.2-.03.36-.07.48-.1v.95c-.13.06-.33.12-.59.16s-.5.06-.7.06c-1.58 0-2.37-.83-2.37-2.49v-4.85h-1.17v-.6l1.17-.51.52-1.74h.71v1.89h2.37v.96h-2.37v4.8c0 .49.12.87.35 1.13s.55.39.96.39zm5.31 3.74c-.47 0-.83-.07-1.1-.2v-1.08c.35.1.72.15 1.1.15.49 0 .86-.15 1.12-.45s.38-.73.38-1.29V25.33h1.27v10.78c0 .94-.24 1.67-.71 2.19s-1.16.78-2.06.78z"/><use xlink:href="#C" x="-18.46" y="18.3"/><path d="M157.47 36.37c-1.18 0-2.1-.36-2.74-1.09-.65-.73-.97-1.76-.97-3.09s.33-2.42.99-3.16c.66-.75 1.59-1.12 2.81-1.12a5.33 5.33 0 0 1 1.18.13c.4.09.7.18.92.3l-.38 1.05c-.27-.11-.57-.2-.89-.27a4.13 4.13 0 0 0-.86-.11c-1.66 0-2.49 1.06-2.49 3.17 0 1 .2 1.77.61 2.31s1 .8 1.8.8c.68 0 1.38-.15 2.09-.44v1.09c-.55.28-1.23.42-2.06.42zm5.22-4.33c.21-.3.54-.7.98-1.19l2.64-2.79h1.47l-3.31 3.48 3.54 4.68h-1.5l-2.88-3.86-.93.8v3.05h-1.22V24.62h1.22v6.14l-.06 1.27h.06zm12.05 1.95c0 .76-.28 1.35-.85 1.76s-1.36.62-2.38.62c-1.08 0-1.93-.17-2.53-.51v-1.15a6.3 6.3 0 0 0 1.26.47c.45.11.88.17 1.3.17.64 0 1.14-.1 1.49-.31s.52-.52.52-.94c0-.32-.14-.59-.41-.82s-.81-.49-1.61-.8c-.76-.28-1.3-.53-1.62-.74s-.56-.45-.71-.72c-.16-.27-.23-.59-.23-.96a1.81 1.81 0 0 1 .81-1.57c.54-.39 1.28-.58 2.23-.58a6.49 6.49 0 0 1 2.58.54l-.44 1.01c-.82-.34-1.56-.51-2.23-.51-.59 0-1.03.09-1.33.28s-.45.44-.45.76c0 .22.06.4.17.56.11.15.29.3.54.44s.73.34 1.43.6c.97.35 1.62.71 1.96 1.06s.51.81.51 1.35z"/><use xlink:href="#B" x="41.19" y="18.3"/><path d="M191.54 36.22v-5.28c0-.67-.15-1.16-.45-1.49s-.78-.49-1.42-.49c-.85 0-1.48.23-1.88.69s-.6 1.22-.6 2.29v4.28h-1.24v-8.16h1.01l.2 1.12h.06a2.53 2.53 0 0 1 1.06-.93 3.5 3.5 0 0 1 1.53-.33c.98 0 1.72.24 2.22.71s.74 1.23.74 2.27v5.32h-1.24zm5.56 0l-3.1-8.16h1.33l1.76 4.84.7 2.2h.06c.05-.26.23-.81.52-1.63l1.95-5.41h1.33l-3.1 8.16h-1.44zm5.75-10.37c0-.28.07-.49.21-.62s.31-.2.52-.2a.71.71 0 0 1 .51.2c.14.13.22.34.22.62s-.07.49-.22.62a.7.7 0 0 1-.51.2c-.21 0-.38-.07-.52-.2-.14-.14-.21-.34-.21-.62zm1.34 10.37h-1.24v-8.16h1.24v8.16zm3.86 0h-1.24V24.63h1.24v11.59zm3.86 0h-1.24V24.63h1.24v11.59z"/><use xlink:href="#E" x="10.28" y="18.3"/><defs ><path id="B" d="M142.6 13.83c0 1.33-.34 2.37-1.01 3.12s-1.6 1.12-2.78 1.12c-.73 0-1.38-.17-1.94-.51-.57-.34-1-.83-1.31-1.47s-.46-1.39-.46-2.25c0-1.33.33-2.37 1-3.11s1.59-1.11 2.77-1.11 2.05.38 2.72 1.14 1.01 1.79 1.01 3.08zm-6.22 0c0 1.04.21 1.84.63 2.38.42.55 1.03.82 1.84.82s1.42-.27 1.84-.82c.42-.54.63-1.34.63-2.39s-.21-1.83-.63-2.36c-.42-.54-1.04-.81-1.86-.81s-1.42.27-1.83.8-.62 1.32-.62 2.38z"/><path id="C" d="M169.21 17.92l-.25-1.16h-.06c-.41.51-.81.86-1.22 1.04s-.91.27-1.52.27c-.81 0-1.44-.21-1.9-.63s-.69-1.01-.69-1.78c0-1.65 1.32-2.51 3.95-2.59l1.38-.04v-.51c0-.64-.14-1.11-.41-1.42s-.72-.46-1.32-.46c-.68 0-1.45.21-2.31.63l-.38-.95c.4-.22.84-.39 1.32-.51s.96-.19 1.44-.19c.97 0 1.69.22 2.16.65s.7 1.12.7 2.08v5.57h-.92zm-2.79-.87c.77 0 1.37-.21 1.81-.63s.66-1.01.66-1.77v-.74l-1.24.05c-.98.03-1.69.19-2.13.46-.43.27-.65.69-.65 1.26 0 .45.14.79.41 1.02s.65.35 1.14.35z"/><path id="D" d="m187.64,17.05c.22,0,.43-.02.63-.05s.36-.07.48-.1v.95c-.13.06-.33.12-.59.16s-.5.06-.7.06c-1.58,0-2.37-.83-2.37-2.49v-4.85h-1.17v-.6l1.17-.51.52-1.74h.71v1.89h2.37v.96h-2.37v4.8c0,.49.12.87.35,1.13.23.26.55.39.96.39Z"/><path id="E" d="M207.7 18.07c-1.21 0-2.16-.37-2.86-1.1s-1.05-1.75-1.05-3.06.32-2.36.97-3.13 1.52-1.16 2.61-1.16c1.02 0 1.83.34 2.43 1.01s.89 1.56.89 2.66v.78h-5.62c.02.96.27 1.69.73 2.18.46.5 1.11.74 1.94.74.88 0 1.75-.18 2.61-.55v1.1c-.44.19-.85.32-1.24.41-.39.08-.86.12-1.41.12zm-.33-7.42c-.66 0-1.18.21-1.57.64s-.62 1.02-.69 1.77h4.27c0-.78-.17-1.38-.52-1.79s-.84-.62-1.49-.62z"/></defs></svg>