<svg fill="none" height="200" viewBox="0 0 200 200" width="200" xmlns="http://www.w3.org/2000/svg" xmlns:xlink="http://www.w3.org/1999/xlink"><clipPath id="a"><path d="m0 0h200v200h-200z"/></clipPath><g clip-path="url(#a)"><circle cx="100" cy="100" r="92.5" stroke="#2d3031" stroke-width="15"/><path d="m90.8 40.4c0-3.4667 1.2-6.4 3.6-8.8s5.3333-3.6 8.8-3.6c3.467 0 6.4 1.2 8.8 3.6 2.533 2.4 3.8 5.3333 3.8 8.8s-1.267 6.4667-3.8 9c-2.4 2.4-5.333 3.6-8.8 3.6-3.4667 0-6.4-1.2-8.8-3.6-2.4-2.5333-3.6-5.5333-3.6-9zm-9.8 31.4h30.6v99.2h-16.8v-85.8h-13.8z" fill="#2d3031"/></g></svg>