<svg viewBox="0 0 1024 576" xmlns="http://www.w3.org/2000/svg"><path d="m108.39 302.53a1.8 1.8 0 0 1 2.92 0c.75 1.13.3 4.34-.87 4.65-2.59.66-2.59-3.74-2.05-4.65z" fill="#292a29"/><path d="m115.42 275.82a10.17 10.17 0 0 1 -1.38.45 11.9 11.9 0 0 0 .82 1.74c-1.22-.88-2.68-1.58-3.71-2.42l-.71 1.79c1.8 3.54 6.89 6.56 7.57 2.25a16.55 16.55 0 0 0 -.31-4.76 19.32 19.32 0 0 1 -2.28.95z" fill="#72615b"/><path d="m117.7 274.87c-.65-3.53-2.1-7.49-4.16-8.06l-.42 5.9a18.64 18.64 0 0 0 .92 3.56 10.17 10.17 0 0 0 1.38-.45 19.32 19.32 0 0 0 2.28-.95z" fill="#00ad91"/><path d="m115.29 283.44-4.58-3.3v-7.32l4.58 3.3z" fill="#ef537f"/><path d="m115.79 283.37-.5.07-4.08-3.37-.5-7.25.5-.07 4.58 3.3z" fill="#ef537f"/><g fill="#292a29"><path d="m114.39 283.4-4.58-3.3v-7.32l4.58 3.3z"/><path d="m114.89 283.33-.5.07-4.08-3.37-.5-7.25.5-.07 4.58 3.3z"/><path d="m112.34 284.13-4.77 2.11c.93 8.9-1.29 15.17-3.66 23.27l2.38.94c4.26-8.45 8.65-15.78 6.05-26.32z"/><path d="m107.85 285.11-5.07.4c-2.25 3.35 4.61 9.79 5.86 20.29h2.58c0-9.4-.84-13.39-3.37-20.69z"/><path d="m103.34 309.88a1.4 1.4 0 0 1 2.18-.91c.77.53 1 2.13 1.26 2.15a1.32 1.32 0 0 1 1.18 1.34c0 .79-.95 1.34-2.92 1.06-1.12-.15-1.84-1.77-1.7-3.64z"/></g><path d="m109.11 266.68a3.05 3.05 0 0 1 -3.09 0v-4.35h3.09z" fill="#72615b"/><path d="m111.57 258.57c.67-1.48.08-2.54-1.56-2.46.69-2-.93-2.25-2.25-1.38a1.37 1.37 0 0 0 -2.3 1c-.76 0-1.7-.32-2.3.28a3.51 3.51 0 0 0 -.23 3.14s-.12-.06-.12-.05c-.71 1.27.17 2.27 1.35 2.74a3.89 3.89 0 0 0 3.4 2.16 4 4 0 0 0 3.69-2.81c1.03-.96 1.61-2.77.32-2.62z" fill="#292a29"/><path d="m102.05 272.77-1.25-5.08a19.43 19.43 0 0 0 -3.39 5.64 13.33 13.33 0 0 0 3.1 2.1 17.62 17.62 0 0 1 1.54-2.66z" fill="#00ad91"/><path d="m114.74 269.9a2.76 2.76 0 0 0 -1.59-3.27 18.78 18.78 0 0 0 -11.06 0 2.75 2.75 0 0 0 -1.59 3.27 60.14 60.14 0 0 1 1.5 15.64 31.1 31.1 0 0 0 11.29.32 60.06 60.06 0 0 1 1.45-15.96z" fill="#00ad91"/><path d="m108.64 272.43c0-1.23.6-6.73 2.4-6.52a8.69 8.69 0 0 1 1.2.35c-1.81.11-2.35 5.29-2.4 6.52z" fill="#292a29"/><path d="m106.56 272.43c0-1.23-.6-6.73-2.4-6.52a8.69 8.69 0 0 0 -1.2.35c1.81.11 2.35 5.29 2.4 6.52z" fill="#292a29"/><path d="m109.12 271.49v-.18c-.09-1-.2-2.12-1.33-2.18a1.56 1.56 0 0 0 -1.16.45 1.17 1.17 0 0 0 -.37.9h-.3a1.45 1.45 0 0 1 .46-1.13 1.87 1.87 0 0 1 1.39-.55c1.38.09 1.52 1.46 1.61 2.47v.17z" fill="#ef537f"/><rect fill="#292a29" height="12.63" rx="1.7" width="9.39" x="102.96" y="270.38"/><rect fill="#ef537f" height="4.7" rx="1.7" width="7.13" x="104.09" y="270.61"/><path d="m100.51 275.43a13.33 13.33 0 0 1 -3.1-2.1 16.1 16.1 0 0 0 1.08 13.46.83.83 0 0 1 0 .15c-.45.58-.61 1.39 0 1.76-.38 1.51-1.26 2.69.28 1.68 1.81-1.08 1.39-2.77.93-4.83a15 15 0 0 1 .81-10.12z" fill="#72615b"/><path d="m186.43 224.08a4.5 4.5 0 0 1 -.68.18 7.47 7.47 0 0 0 .31 1c-.54-.55-1.21-1-1.66-1.55l-.41 1c.7 2.08 3 4 3.5 1.65a11.21 11.21 0 0 0 .06-2.69 9 9 0 0 1 -1.12.41z" fill="#fac0ab"/><path d="m187.55 223.67c-.16-2-.68-4.32-1.63-4.74l-.46 3.29a12.83 12.83 0 0 0 .29 2 4.5 4.5 0 0 0 .68-.18 9 9 0 0 0 1.12-.37z" fill="#e2b3b3"/><path d="m186.03 228.36-2.03-2.09.31-4.11 2.04 2.08z" fill="#00ad91"/><path d="m186.27 228.34-.24.02-1.79-2.11.07-4.09.24-.02 2.04 2.09z" fill="#00ad91"/><path d="m185.6 228.29-2.03-2.09.32-4.11 2.03 2.09z" fill="#292a29"/><path d="m185.84 228.28-.24.01-1.79-2.1.08-4.1.24-.01 2.03 2.08z" fill="#292a29"/><path d="m184.68 229.14-2.56 1c.07 5.46-1.37 9.15-3 13.94l1.18.7c2.62-4.86 5.23-9.09 4.38-15.64z" fill="#973266"/><path d="m182.32 229.49h-2.62c-1.32 1.92 1.91 6.21 2.06 12.66l1.33.14a37.31 37.31 0 0 0 -.77-12.8z" fill="#973266"/><path d="m182.84 240.48c.68-.47 1.49-.25 1.4.43s-1.61 2.51-2.3 2.51c-1.51 0 .28-2.5.9-2.94z" fill="#ef537f"/><path d="m178.86 244.18c.15-.77.95-.79 1.3-.17a3.61 3.61 0 0 1 .25 1.29c.08.49.82.47.54 1.06-.2.42-1 .53-1.77.28-.43-.13-.53-1.35-.32-2.46z" fill="#ef537f"/><path d="m183.83 218.36a1.38 1.38 0 0 1 -1.59-.17l.21-2.65 1.59.17z" fill="#fac0ab"/><path d="m180.67 221.65-.41-3.16a12 12 0 0 0 -2 3.24 7.09 7.09 0 0 0 1.5 1.45 10.13 10.13 0 0 1 .91-1.53z" fill="#e2b3b3"/><path d="m179.75 223.18a7.09 7.09 0 0 1 -1.5-1.45c-1.16 2.72-1.51 6-.07 8.25-.21 1.24-1.22 2.94 0 2.19a2.11 2.11 0 0 0 .7-2.88c-.69-1.92-.02-4.29.87-6.11z" fill="#fac0ab"/><path d="m185.91 220.53c.23-.73.19-1.69-.36-2a6.43 6.43 0 0 0 -5-.53c-.59.21-.78 1.15-.66 1.92a21.12 21.12 0 0 1 -.87 9.52 16.59 16.59 0 0 0 6.29.87 21 21 0 0 1 .6-9.78z" fill="#e2b3b3"/><path d="m183.33 221.82c.08-.74.62-4.06 1.54-3.83a4.27 4.27 0 0 1 .6.29c-.94 0-1.46 3.08-1.54 3.83z" fill="#292a29"/><path d="m182.25 221.71c0-.75 0-4.13-.93-4.1a5 5 0 0 0 -.63.15c.93.17 1 3.35.93 4.1z" fill="#292a29"/><path d="m183.61 221.28v-.11c0-.6 0-1.29-.58-1.39a.76.76 0 0 0 -.84.73h-.19a.92.92 0 0 1 .29-.66.85.85 0 0 1 .74-.26c.72.13.72 1 .73 1.59v.11z" fill="#ef537f"/><path d="m184.82 227.42a1 1 0 0 1 -1 1l-3.08-.33a1 1 0 0 1 -.8-1.13l.43-5.61a1 1 0 0 1 1-.94l3.08.33a1 1 0 0 1 .8 1.13z" fill="#00ad91"/><path d="m184.6 222.68a1 1 0 0 1 -1 .94l-1.92-.2a1 1 0 0 1 -.8-1.13l.06-.79a1 1 0 0 1 1-.94l1.92.21a1 1 0 0 1 .8 1.13z" fill="#ef537f"/><path d="m186.35 215.67c.22-.6.77-1.19.51-1.92s-1.08-.46-1.29-.93c-.28-.65.32-1-.07-1.9s-1.29-.62-1.9-.19a1 1 0 0 0 -.61-.54c-.58-.09-1.17.83-1.36 1.37-.62-.76-.95.64-.88 1.21-1.05-.24-1.39 2.34-.78 3-1 .28-2 .85-1.41 2.17s1.56 1.09 2.35.29c.49 1.22 1.23.95 2.12.7 1.18-.33.33.33 1.25.63.67.23 1-.92 1.77-.64.38.14.43.71.95.58s.76-1 .8-1.47a2.27 2.27 0 0 0 -1.45-2.36z" fill="#ef537f"/><path d="m74.3 228.42c.59 5.67 3.1 9.25 2.62 14.88l-1.86-.11c-.19-5.07-4.87-9.71-4.74-14.88z" fill="#292a29"/><path d="m77.4 244.59c0 .36-1.12.34-2.51.34s-2.51 0-2.51-.34 2.3-1.55 3.69-1.55 1.33 1.2 1.33 1.55z" fill="#292a29"/><path d="m66.57 242.18c0 .36-1.13.35-2.51.35s-2.51 0-2.51-.35 2.29-1.55 3.68-1.55 1.34 1.19 1.34 1.55z" fill="#292a29"/><path d="m74.18 226c2.23.63 2.36 3.77-.22 4.62-3.61 1.17-5 4.79-7.54 10.93l-1.79-.24c.58-3.89.14-11.49 8.05-15.31z" fill="#292a29"/><path d="m76.31 220.31c0-1.06.25-4.08-2.91-3.93-1.63.07-3.68 1.67-3.69 3.31a26.64 26.64 0 0 0 .42 3.07 32 32 0 0 1 0 4.27 10.61 10.61 0 0 0 5.8.54 48.9 48.9 0 0 0 .38-7.26z" fill="#ef537f"/><path d="m75.3 214.15c-.81 1.06-2.65 1.9-3.65 1.25s-.77-2.53 0-3.6a2.19 2.19 0 0 1 3.07-.48 1.84 1.84 0 0 1 .58 2.83z" fill="#fac0ab"/><path d="m74 216.12c-.27 1.22-2.24 2-2 .73.11-.49.39-1.94.5-2.42l1.74.32c-.05.49-.1.88-.24 1.37z" fill="#fac0ab"/><path d="m71.06 220.42a1.08 1.08 0 0 0 .08.29 3.94 3.94 0 0 0 .36.71 6 6 0 0 0 .66.9 6.33 6.33 0 0 0 .44.46c.14.15.32.28.48.42a6.55 6.55 0 0 0 .53.39 5.89 5.89 0 0 0 .54.32 6.66 6.66 0 0 0 1 .45l.43.15.33.09.3.09h-.31a4.61 4.61 0 0 1 -.8-.13 3.84 3.84 0 0 1 -.52-.16 2.72 2.72 0 0 1 -.57-.23 4.18 4.18 0 0 1 -.58-.32c-.19-.11-.37-.25-.55-.38a5.45 5.45 0 0 1 -.5-.46 6.48 6.48 0 0 1 -.44-.49 5.16 5.16 0 0 1 -.35-.51 3.77 3.77 0 0 1 -.26-.48 3.46 3.46 0 0 1 -.17-.43 1.93 1.93 0 0 1 -.09-.34 1.2 1.2 0 0 1 -.01-.34z" fill="#292a29"/><path d="m76.33 218a3.18 3.18 0 0 0 -5.27 2.45c-.14-3.06 3.05-4.74 5.27-2.45z" fill="#292a29"/><path d="m77.22 218.65a.06.06 0 0 1 0-.08 1.17 1.17 0 0 0 -.26-1.1.22.22 0 0 0 -.22-.07c-.07 0-.23.15-.28.7a.07.07 0 1 1 -.13 0c0-.57.22-.76.36-.81a.34.34 0 0 1 .36.08 1.34 1.34 0 0 1 .3 1.24.08.08 0 0 1 -.13.04z" fill="#292a29"/><path d="m71.75 210.46c-.9.71-1.2 2.22.5 2.16 1 0 2.26-.28 1.79.93-.23.6.6.33.22 1.2-.1.23-.43.74-.13.88s1-.5 1.25-.66c.41-.34 1.52-1.59.66-2 .81-.62 1.56-2.61-.25-2.23.14-.43-.34-.74-.71-.85a3.53 3.53 0 0 0 -3.33.57z" fill="#292a29"/><path d="m76.44 218a.14.14 0 0 0 -.09 0 7.39 7.39 0 0 1 .37 3.72c-.2 1.44-.59 2.87-.71 4.31.32.58 1.38.64 2.08.51 1.29-.25 1.53-1.4 1.65-2.43.26-2.17-.91-5.44-3.3-6.11z" fill="#00ad91"/><path d="m76.35 218c-.73.24-1.23 6.25-.36 8 .12-1.44.51-2.87.71-4.31a7.39 7.39 0 0 0 -.35-3.69z" fill="#292a29"/><path d="m76.48 221.28c.18-2.07-.27-4-1.89-3.92-1.45.08-1.56 1.95-1.37 3.72a7.88 7.88 0 0 0 3.26.2z" fill="#ef537f"/><path d="m73.22 221.08c.08.66.19 1.3.3 1.83a11.83 11.83 0 0 0 -2.62-2.22l-.61.34c1.17 3.95 3.23 5.26 4.23 4.9s1.78-2.56 2-4.65a7.88 7.88 0 0 1 -3.3-.2z" fill="#fac0ab"/><path d="m71.57 218.84c0 .32-.17 1.46-.67 1.17s.14-1.36.36-1.63a1.93 1.93 0 0 0 -1.46 1.2c-.38 1 .09 1.69.81 1.73a1.26 1.26 0 0 0 1.32-1.05 1.57 1.57 0 0 0 -.36-1.42z" fill="#fac0ab"/></svg>