<svg viewBox="0 0 1024 576" xmlns="http://www.w3.org/2000/svg"><path d="m388.4 550.23c-.4-3.31 1.1-6.26 1.45-9.53.38-3.49-3.21-5.78-8.13-3.83-6.73 2.66-6 9.22-3.75 13.53 1.19 2.31 2.95 6 7.17 4.35 2.42-.95 3.46-2.87 3.26-4.52z" fill="#973266"/><path d="m386 547.82c-3.32-18.71-3.22-30.85-3.22-49.68 0-11.72-1.44-29.79-3.19-50.88l-19.59 1.07c-3.73 24.52 1.46 33.49 8.19 49.08-5.81 17.27 1.22 32.83 10.61 53 0 0 1.8 2.55 5.41.79 2.65-1.3 1.79-3.38 1.79-3.38z" fill="#fac0ab"/><path d="m388.61 445.92-13.79 2.94c-4.25 18.71 0 37.8-.48 56.72a47.74 47.74 0 0 0 -8.16 11.07c-5.72 11.1-4.69 26.14-3.93 38.25l6.28 3.83c4.13-24.17 18-38.67 22.79-56.74 3.55-13.32 5.25-43.75-2.71-56.07z" fill="#fac0ab"/><path d="m405 324.7-5 1.89c6.13 14.2 6.42 23.8 14.12 37.84 3.36 6.14-15 21.54-19.78 32.21l.71 17c10.79-7.58 26.12-24.38 30.33-37.15 5.1-15.49-8.81-36.37-20.38-51.79z" fill="#fac0ab"/><path d="m344.18 459.29c1.67-16.4 4.67-33.36 16-48.49l-7.29-16.75c-22 33-17.93 53.53-14.79 69.05-2.91 3.42-3.14 6.73-.38 9.24-1.1 1.83-2.57 3.45-3.18 5.43 10.22 4.02 15.4-11.93 9.64-18.48z" fill="#fac0ab"/><path d="m394.83 387.48c-4.77-1.42-25.72-5.47-38 1.66-9.05 5.26-18.21 18.1-11 27.33 4.07 5.24 9.3 6 12.13 2.08a150.24 150.24 0 0 1 3.39 19.85c-13.7 13.27-24.58 40.23-24.86 59.15 8.28-2.31 13.65 4.38 19.54 9 13.16 10.32 35.48 13.85 46.21-4.16 7.07-19.54 2.84-51.15-11.15-64.74.67-8.57 2.79-12.95 4.67-20.64 12-2.49 18.56-16.71 17.25-20.18-2.65-6.95-10.17-16.7-18.18-9.35z" fill="#ef537f"/><path d="m399.94 369.86c1.31-4.1 5.19-8.31 2.8-12.85-2.22-4.21-8.59-2.2-10.45-5.12-2.53-4 1.82-6.95-1.64-12.23s-10.25-3.17-14.66 0a7 7 0 0 0 -5-3c-4.49-.23-8.5 6.14-9.62 9.77-5.2-4.45-6.92 4.82-6 8.5-8.19-.8-9.25 16.09-4.23 20.12-7.28 2.51-14.43 6.88-9.45 15 4.76 7.79 12.54 6 18.12.24 4.46 7.59 9.95 5.3 16.66 3.07 8.83-2.94 2.74 1.91 9.93 3.25 5.27 1 7-6.72 13.13-5.41 3 .66 3.75 4.27 7.67 3.12s5.2-6.71 5.21-10.14c.02-7.47-5.41-12.86-12.47-14.32z" fill="#973266"/><path d="m370.66 564.21c-.81-6.64-4-12.15-9.33-9.24-4.58 2.52-1.95 14.06-.16 16.35 2.54 3.23 10.39 1.14 13.37-.8 1.26-3.94-.79-6.36-3.88-6.31z" fill="#973266"/><path d="m395.29 318a3.45 3.45 0 0 1 3.51 2.78 28.3 28.3 0 0 1 .51 3c.3 1.89 1.15 2.49 3.12 3s1 3.38-.89 3c-2.36-.51-4.47-1.8-5-4s.14-4.53-1.85-6.36c-.55-.57-.04-1.36.6-1.42z" fill="#fac0ab"/><path d="m402.05 310.53c1.62 4.56 2 11.44-1.29 15.4-.48.59-1.3.11-1.39-.52-.29-2.16.29-4.37.64-6.5a35.51 35.51 0 0 0 .17-8.05 1 1 0 0 1 1.87-.33z" fill="#fac0ab"/><path d="m407.56 309.58c-.5 5.53-1.22 11.94-5.37 16a.71.71 0 0 1 -1.2-.64c.47-3.42 1.64-6.68 2.44-10a31.6 31.6 0 0 1 1.73-6.21c.67-1.45 2.51-.48 2.4.85z" fill="#fac0ab"/><path d="m409 311.6a1.08 1.08 0 0 1 1.91 1c-1.37 3.61-3.33 9-6.64 11.11-.43.28-1.15.1-1.06-.56.54-3.85 3.56-8.33 5.79-11.55z" fill="#fac0ab"/><path d="m407.8 322.8c-.94 1-2-.17-1.42-1.4 1.09-2.47 2.83-6.07 5.07-7 .45-.2.69.37.61.83-.42 2.51-2.58 5.82-4.26 7.57z" fill="#fac0ab"/><path d="m400.89 316.71c-1.48 3.68-3 9.57 1.46 12.62a5.89 5.89 0 0 0 5.82 0c2.53-1.89 1.61-7.37 1.49-10.41z" fill="#fac0ab"/><path d="m451.93 344.18c1.18-7.21 1.55-12.41 3.32-19a.71.71 0 0 1 .36.48c.15 1.11.37 2.21.62 3.31 2.71-1 5.33-2 7.9-3.15-.41-2-.89-4.12-1.34-6.36-1.14-5.69-4.77-9.83-12.23-8.7-4.44.67-8.86.06-13.16-.53a13.43 13.43 0 0 0 -4.31.12c-1.29-2.18-2.87-4.12-4.44-6.34a31.12 31.12 0 0 0 -6.87 5.64c2.46 4.7 5.78 9.76 8.72 14.34 2.87 6.93 3.12 12.54 4.38 20.16z" fill="#00ad91"/><path d="m458.76 420.36-4-.82c.17 1-1 6.14-1.55 8.27a2.41 2.41 0 0 0 -1.22 2.7c.65 3 7.86 1.79 8.58 1a21.8 21.8 0 0 0 -1.81-11.15z" fill="#ef537f"/><path d="m428.34 420.36 4.05-.82c-.2 1 .86 6.11 1.39 8.23a2.33 2.33 0 0 1 1.16 2.69c-.71 3-7.93 1.77-8.64 1a21.73 21.73 0 0 1 2.04-11.1z" fill="#ef537f"/><path d="m428.65 304a37 37 0 0 1 -3.47-5.88c5.5-4.56 4.91-14.5 10.24-22.29l-2.36-1.34c-5.68 4.7-13.25 15.82-14.69 23.23-.58 3 1 7.27 3.41 11.92a31.12 31.12 0 0 1 6.87-5.64z" fill="#8e756e"/><path d="m434.88 344.18c-9.25 9.52-7.79 25-6.14 37.75-5.87 13.84-2.61 29.94-1.13 41h4.88c1.53-15.41 4.39-29.51 7.88-44.6.82-3.54 2-7.46 3.11-11.45 1.11 4 2.29 7.91 3.11 11.45 3.48 15.09 6.34 29.19 7.88 44.6h4.87c1.49-11.09 4.75-27.19-1.12-41 1.67-12.9 3.31-28.26-6.29-37.75z" fill="#e2b3b3"/><g fill="#8e756e"><path d="m440.23 273.07a1.81 1.81 0 0 0 -2.32.44 13.28 13.28 0 0 0 -1 1.26c-.59.81-1.14.87-2.19.64s-1.3 1.32-.3 1.59a3.18 3.18 0 0 0 3.32-.64c.82-.93 1-2.14 2.42-2.5.39-.1.35-.59.07-.79z"/><path d="m438.91 268c-1.87 1.72-3.74 4.83-3.18 7.47a.42.42 0 0 0 .77.11 11.64 11.64 0 0 0 1.3-3.18 18.41 18.41 0 0 1 1.9-3.79c.3-.55-.38-1.04-.79-.61z"/><path d="m436.58 266.16c-1.12 2.69-2.36 5.85-1.43 8.75a.38.38 0 0 0 .72 0 52.72 52.72 0 0 0 1.32-5.27 15.69 15.69 0 0 0 .72-3.3c.09-.83-1.05-.83-1.33-.18z"/><path d="m435.42 266.74a.57.57 0 0 0 -1.13 0c-.25 2-.68 5 .35 6.79.14.24.52.33.64 0 .72-1.92.38-4.75.14-6.79z"/><path d="m433.23 272.24c.19.68.95.4 1-.3.1-1.42.17-3.52-.63-4.51-.17-.2-.42 0-.49.24a9 9 0 0 0 .12 4.57z"/><path d="m437.93 271.11c-.22 2.07-.93 5.19-3.77 5.51a3.12 3.12 0 0 1 -2.71-1.42c-.72-1.51 1.06-3.83 1.86-5.21z"/><path d="m447.73 312.25c0 5.66-8.5 5.66-8.5 0l.84-9.43h6.82z"/><path d="m452.08 296.88c0 5.67-3.85 10.27-8.6 10.27s-8.6-4.6-8.6-10.27 3.85-10.26 8.6-10.26 8.6 4.6 8.6 10.26z"/></g><path d="m459.85 301.36c-2.14-2.46-5.15-3.24-5.32-6.7-.21-4.23-.43-9.43-4.43-12.26-3.51-2.48-8.83-2.27-11.27 2.6-4.57 9.13 11 12.87 13.12 20.41 2 6.94-10.21 10.35-1.69 19.48 1.22-4.47 4.15-7.19 7.84-10.93s5.63-8.15 1.75-12.6z" fill="#292a29"/><path d="m433.17 319.78c2.46-4.82-.7-10.39-2.43-12.87-2.32-3.34-4.24-6.81-.72-9.64 2.84-2.3.37-9.6 4.27-12.67 1.95-1.53 6.22-1.48 7.91.24.23 3.32-.2 6.29-2.16 8.89s-5.91 5.94-5.41 9.64c.38 2.78 3.15 4.77 3.43 7.78.34 3.78-1.99 6.59-4.89 8.63z" fill="#292a29"/><path d="m435 333.23c.65 1.34 3.29 3.59 4.8 3.41s.49-3.43.33-4.44c1.47 2.41 4.56 6.38 2.2 8.93-1.42 1.54-3.35 1.33-5 .07-2.27-1.72-2.72-5.34-2.33-7.97z" fill="#8e756e"/><path d="m456.23 329c.47 2.05 1 9.28 1.76 11.15-4.68-2-12-1.81-16.64-1.8l-1.35 2.49c5 2.5 22.31 9 24.36 2.14 1.11-3.69.67-12.79-.21-17.13-2.59 1.15-5.21 2.15-7.92 3.15z" fill="#8e756e"/><path d="m442.73 284.68c-1.32 4.18-11.31 4.76-22.32 1.29s-18.88-9.67-17.56-13.84 11.31-4.76 22.32-1.29 18.83 9.66 17.56 13.84z" fill="#2ebfa2"/><path d="m442.81 284.25c-1.3 4.14-11.26 4.69-22.24 1.23s-18.83-9.62-17.53-13.76 11.27-4.69 22.25-1.23 18.82 9.62 17.52 13.76z" fill="#fff9f2"/><path d="m440.79 282.59c-1 3.28-9.69 3.47-19.34.43s-16.64-8.16-15.6-11.43 9.68-3.47 19.33-.43 16.64 8.16 15.61 11.43z" fill="#fff9f2"/><path d="m403.34 271.73a4.56 4.56 0 0 0 .74 3.47c1.19 1.73 6.72 8.22 24.33 11.81 0-.01-24.91-5.96-25.07-15.28z" fill="#fff9f2"/><path d="m437.84 281.26c-.58 1.54-2.93 1.7-4.29 1.76a28.87 28.87 0 0 1 -7.52-.83c-4.93-1.1-10.17-2.91-14.24-6-1-.79-2.69-2.09-2.63-3.56.07-1.68 2.47-2 3.74-2.12 5.14-.44 10.65 1.14 15.37 3a29.73 29.73 0 0 1 6.88 3.67c1.14.86 3.13 2.38 2.69 4.05 0 .14.2.19.24.06.33-1.25-.64-2.38-1.46-3.18a22.29 22.29 0 0 0 -6.29-4 45.58 45.58 0 0 0 -9.45-3.14 26.5 26.5 0 0 0 -8.12-.73c-1.2.11-3 .36-3.64 1.55-.57 1 .15 2.18.82 3a18.32 18.32 0 0 0 5.71 4 45.26 45.26 0 0 0 9 3.29 29.33 29.33 0 0 0 9.54 1.12c1.36-.12 3.37-.4 3.92-1.88.02-.14-.22-.19-.27-.06z" fill="#c02e4c"/><path d="m437.41 281.06c-.57 1.48-3 1.52-4.27 1.54a30.66 30.66 0 0 1 -7.19-.91c-4.76-1.1-9.78-2.82-13.76-5.73-1-.7-2.62-1.9-2.59-3.26 0-1.59 2.39-1.82 3.54-1.9 5-.33 10.4 1.25 15 3.09a30.57 30.57 0 0 1 6.59 3.43c1.07.76 3.05 2.19 2.66 3.74 0 .09.12.12.14 0 .29-1.11-.65-2.12-1.4-2.82a22.13 22.13 0 0 0 -6-3.67c-5.14-2.34-11.3-4.3-17-3.93-1.1.07-2.88.22-3.51 1.33-.51.91.17 1.92.78 2.59a17.4 17.4 0 0 0 5.4 3.67 45.89 45.89 0 0 0 8.75 3.22 30 30 0 0 0 9.35 1.22c1.22-.08 3.13-.26 3.64-1.61.04-.06-.11-.06-.13 0z" fill="#c02e4c"/><path d="m427 274.75c-6.19-.65-3.25 1.73-3.25 1.73-5.21-2.94.67-2.63.7-2.63-5.22-1.63-9.79-1.79-10.23-.37-.39 1.22 2.39 3.23 6.48 4.82 6.07.51 3.12-1.8 3.12-1.8 5.27 2.87-.66 2.65-.66 2.65h-.05c5.19 1.6 9.73 1.76 10.17.34.38-1.21-2.28-3.17-6.28-4.74z" fill="#c02e4c"/><path d="m439.38 301.24c0 4.25 3.6 5.17 5.94 1.67z" fill="#292a29"/><path d="m439.74 301.76c.59 1.34 3 1.59 4.69 1.34z" fill="#fff"/><path d="m233.3 524.36c-.14-3.43-49.33-4.18-109.87-1.68s-109.51 7.32-109.36 10.73 49.33 4.17 109.87 1.68 109.5-7.3 109.36-10.73z" fill="#632459" opacity=".1"/><path d="m235.35 522.23c0-1.72-49.11-3.32-109.7-3.57s-109.72.92-109.73 2.64 49.11 3.31 109.7 3.57 109.72-.93 109.73-2.64z" fill="#632459" opacity=".1"/><path d="m233.3 524.36c-.14-3.43-49.33-4.18-109.87-1.68s-109.51 7.32-109.36 10.73 49.33 4.17 109.87 1.68 109.5-7.3 109.36-10.73z" fill="#632459" opacity=".1"/><path d="m235.35 522.23c0-1.72-49.11-3.32-109.7-3.57s-109.72.92-109.73 2.64 49.11 3.31 109.7 3.57 109.72-.93 109.73-2.64z" fill="#632459" opacity=".1"/><path d="m83.27 449.62s-6.41 6.14-9.78 19-34.28 44.83-34.28 44.83-5.46 4-18.65 4.43c0 0-1 .31 0 1h-4.44s-.82.51 0 .82-2.06 1.45 3.71 1.65 6.29 2 8.76 1.24 8.35 1.13 15.26-4.64c0 0 18.45-15.43 30.25-29.15s15.5-24.8 15.5-24.8 1.65-7.21-.41-9.79-3.34-7.14-5.92-4.59z" fill="#7f6d61"/><path d="m128.35 403.36c5.57 20.41 44.36 56.58 51.32 61.68s17.62 16.39 17.62 16.39 16.7 24.11 21.64 30.45-19.63 11.72-19.63 11.72c.31 4 8.81 5 12.21 5s13.45-1.23 21-1.23 2.88-8.71 2.88-8.71-5.36-8.45-12.62-25.15-18.24-30.91-26.43-42-29.81-39.95-33.34-44.44c0 0 20.35-40.62 23.44-48s22.26-39.88 29.06-48.23a89.46 89.46 0 0 1 13-13.14l8.39-5.87 3-1.55s-.23-1.47-2.71-1.31c0 0-.46-2.17-2.47-2h-1.47a4.62 4.62 0 0 0 -4.79-.46 12.52 12.52 0 0 0 -7.5 3.87c-3.55 3.63-14.76 5.1-13.68 12.44 0 0-8.91 13-17.47 19.79s-16.05 18.39-17.8 26.83-20.61 29.36-22.56 32.15-17 13.13-21.08 21.77" fill="#7f6d61"/><path d="m128.35 403.36s-4.23 9.09-7 14.81-11.74 10.66-21.79 17-28.75 15.56-16.08 33.36c0 0 8.81 9 23 4.05s13.13-.62 19-11.44 22.1-21.32 26.66-22.64l-9.14-26.82z" fill="#7f6d61"/><path d="m66.29 497.51a12.78 12.78 0 0 0 17.71 3.4 12.48 12.48 0 0 0 2.67-2.44c2.45-2.63 3.28-2 6.69-1.5 0 0 2.38.62 1.73-2.52 0 0-.19-.92 1-.92 0 0 1.5.14 1.12-1.26l-.16-.89s1.3.59 1.7-.43c0 0-.23-1.64.44-2.05s3-2.56 1.59-3.77-11-10.32-13.23-8.82l-2.49 3.28c-4.26-3.5-10.61-3.08-15.41.18a12.78 12.78 0 0 0 -3.36 17.74z" fill="#7f6d61"/><path d="m89.23 469.29c3.17 11.1-3 12-3 12-.66-.9-3.12.14-3.12.14-1.84.65-5.58 4.38-2.48 6.27s2.57 6.49 2.57 6.49a7.52 7.52 0 0 0 .66-1.87c.29-8 3.15-10.17 5.2-10.65a4.38 4.38 0 0 1 2.1 0 6.47 6.47 0 0 0 -2 .51c-1.31.59-2.64 1.87-1.77 4.59a30 30 0 0 1 .93 4c.75 4.75.43 10.6-3.6 13.37-5.28 3.63-23.88-4.07-25.44-17.51a15.11 15.11 0 0 1 8.18-15.63 14.9 14.9 0 0 1 11.54-.7 14 14 0 0 0 10.23-1.01z" fill="#28000f"/><path d="m107.31 430.32c-2.45 1.55-5.07 3.15-7.77 4.85-7.54 4.76-19.94 11.13-20.32 21.53 7.48-22.23 28.31-16.72 14.91-7.08-10.39 7.48-10.75 15.6-10.22 19.32.23.2.54.46.93.76 10.59-30.29 28.93-17.55 28.93-8.4 0 6.11-7.87 10.41-13.23 12.63a26.44 26.44 0 0 0 6-1.35c14.22-4.95 13.13-.62 19-11.44a30.29 30.29 0 0 1 2.34-3.61c-4.75-14.79-15.3-23.53-20.57-27.21z" fill="#7fa1bf"/><path d="m126.37 459.83a.15.15 0 0 1 -.14-.1c-5.81-16.26-21.61-27.45-21.76-27.56a.16.16 0 0 1 0-.22.15.15 0 0 1 .21 0c.16.11 16 11.36 21.88 27.7a.16.16 0 0 1 -.1.2z" fill="#fff"/><path d="m104 450s8.66 4.12 5.77 9.06-14.84 19.17-19 26.18-22.67 29.89-30.71 34.42-18.74 10.34-19.51 11.85-7.27 3.4-13.91 3.25c0 0-5.77 1.72-5.88 0s-6.39.55-6.7-.79-3.4-.41-3.19-2.26a157.62 157.62 0 0 0 21.13-3.71c8.75-2.06 19.27-19.38 29.88-26.08 0 0 18.4-19.68 21.77-34.16s17.35-19.65 20.35-17.76z" fill="#7f6d61"/><path d="m210.72 471.58c-4.92-7.52-10-14.26-14.35-20.14-8.2-11.13-29.84-39.88-33.39-44.37 0 0 20.35-40.62 23.44-48 .89-2.14 3.12-6.35 6-11.46-5-2.16-10.82-6.47-15.3-10.21a40.63 40.63 0 0 0 -5.12 12.04c-1.75 8.45-20.61 29.36-22.56 32.15s-17 13.13-21.08 21.77c5.57 20.41 44.36 56.58 51.32 61.68 5.69 4.18 13.87 12.49 16.65 15.37a28.37 28.37 0 0 0 14.39-8.83z" fill="#632459"/><path d="m151.91 438.36a.15.15 0 0 1 -.12-.05c-5.74-6.07-7.83-15.28-9.21-21.38-.77-3.4-1.38-6.09-2.27-6.59-2.57-1.46-10.57-9-10.91-9.33a.16.16 0 0 1 0-.22.17.17 0 0 1 .22 0c.08.08 8.31 7.85 10.86 9.29 1 .57 1.59 3.18 2.41 6.79 1.37 6.07 3.45 15.23 9.14 21.24a.16.16 0 0 1 0 .22.14.14 0 0 1 -.12.03z" fill="#fff"/><path d="m198.26 480a.14.14 0 0 1 -.14-.11c-1.49-5.07-20.42-21.1-28.09-25.82s-23.19-23.43-23.34-23.62a.15.15 0 0 1 0-.22.17.17 0 0 1 .22 0c.15.19 15.68 18.88 23.27 23.55 7.9 4.87 26.68 20.77 28.21 26a.15.15 0 0 1 -.1.19z" fill="#fff"/><path d="m163 407.07a25 25 0 0 0 -2.36-1.06 23.19 23.19 0 0 0 -2.43-.83 18.11 18.11 0 0 0 -5.05-.75 10.27 10.27 0 0 0 -8.76 4.46 10.89 10.89 0 0 1 1.61-2 10.22 10.22 0 0 1 2.1-1.54 10.79 10.79 0 0 1 5-1.2 17.44 17.44 0 0 1 5.13.84 21.48 21.48 0 0 1 4.76 2.08z" opacity=".5"/><path d="m26.89 320.35c0 .68 9.65 1.57 21.6 2s21.63.2 21.65-.48-9.65-1.58-21.59-2-21.64-.21-21.66.48z" fill="#042b04" opacity=".27"/><path d="m42.05 320.13c1.68 0 4.1-3.05 4.1-3.05 5.68-5.57 8-14.87 8-14.87 1.36-4.63-.53-6.26.52-8.95 1.33-3.4-2-4.85-3.31-6.5s0-3.68 0-3.68l-3.23-2.08-.72 1.84c-2.73 4.16-2.47 6.94-.58 10.67a10 10 0 0 1 -.83 10.3 4.13 4.13 0 0 0 -.84 4.28c-1.05 3-4.78 7.89-4.78 7.89a11.93 11.93 0 0 0 -6.36 0c-6.25 1.38-7.22 0-7.22 0a1.42 1.42 0 0 0 -2.36.15c-1.11 1.58-3.25 2.72-3.46 3 0 0-.75.07-.73.39s.58.47 1.44.31a23.18 23.18 0 0 0 4.76-.1s7.87.27 15.6.4z" fill="#b29476"/><path d="m50.47 274.65a3.26 3.26 0 0 1 3 3.49 3.69 3.69 0 0 1 -.2.9c-.28.88 0 1 .51 1.67 0 0 .44.45-.34.71 0 0-.23.07-.08.34 0 0 .23.31-.13.4l-.22.08s.29.21.12.43c0 0-.39.16-.4.36s-.19 1-.63.83-3.67-1.13-3.63-1.81l.41-1a3.32 3.32 0 0 1 -1.88-3.4 3.25 3.25 0 0 1 3.47-3z" fill="#967d66"/><path d="m47.13 283.3c2.85-.71 2.27-2.19 2.27-2.19-.28 0-.36-.7-.36-.7-.09-.49.26-1.79 1.07-1.35a1.83 1.83 0 0 0 1.76-.25 2 2 0 0 1 -.33.38c-1.74 1.08-1.85 2-1.7 2.5a1.15 1.15 0 0 0 .27.47 1.75 1.75 0 0 1 -.14-.51.85.85 0 0 1 .79-1 9 9 0 0 0 1-.3c1.14-.44 2.4-1.25 2.5-2.49.14-1.63-3.92-4.77-7.1-3.41a3.84 3.84 0 0 0 -2.41 3.78 3.8 3.8 0 0 0 1.3 2.64 3.61 3.61 0 0 1 1.08 2.43z" fill="#0e2e37"/><path d="m47.71 296.06a9.73 9.73 0 0 0 -.88-2.58c-1.48-2.93-2-5.28-.77-8.17 2.07-1.17 4.95 1.68 6.11 3.06.65.78 1 .66 1.19.3 1.17 1.12 2.13 2.48 1.3 4.59a4.9 4.9 0 0 0 -.32 2.15 18.37 18.37 0 0 1 -6.63.65z" fill="#06b195"/><path d="m49.07 295.44a20.87 20.87 0 0 0 5.29-.76 0 0 0 0 0 0-.05s0 0-.05 0a19.47 19.47 0 0 1 -6.79.66s0 0 0 0 0 .05 0 .05a13.25 13.25 0 0 0 1.55.1z" fill="#fff"/><path d="m54.14 302.21s-2.31 9.3-8 14.87c0 0-2.42 3.05-4.1 3.05-2.75 0-5.52-.1-7.94-.18-.67-3.1 0-4 0-4a11.93 11.93 0 0 1 6.36 0s3.73-4.94 4.78-7.89a4.13 4.13 0 0 1 .84-4.28 7.38 7.38 0 0 0 1.17-2 15.73 15.73 0 0 0 6.89.43z" fill="#213943"/><path d="m54.09 302.4s12.39-3 14.12-.93c0 0 1.51 1.11 0 11.93 0 0-.69 4.12 1.67 5.66l3.12 1.43 1 .24a.81.81 0 0 1 -.9.76c-.86-.05-1.68.38-2.93-.05a7.42 7.42 0 0 0 -3.75.1c-.52.19-2.12-.22-1.6-2 0 0 .94-1.66-.1-5.84a16.67 16.67 0 0 1 0-7.81s-12.24 6.43-19.52 2.22a4.13 4.13 0 0 1 .84-4.28 7 7 0 0 0 1-1.6s2.52 1.11 7.05.17z" fill="#b29476"/><path d="m64.72 313.68a16.67 16.67 0 0 1 0-7.81s-12.24 6.43-19.52 2.22a4.13 4.13 0 0 1 .84-4.28 10.82 10.82 0 0 0 1.17-2s2.39.93 6.93.41c0 0 12.34-2.81 14.07-.74 0 0 1.51 1.11 0 11.93a8.08 8.08 0 0 1 -3.49.27z" fill="#2c4652"/><path d="m49.2 303c3.56 0 4.94-.78 5-.79s0 0 0-.05a0 0 0 0 0 -.05 0s-2 1.15-7.46.67a.05.05 0 0 0 0 .05c.91.12 1.76.12 2.51.12z" fill="#fff"/><path d="m67.39 313.64s0 0 0 0a79.13 79.13 0 0 0 .41-8.64c0-.23-.06-.47-.08-.7-.16-1.56-.3-3-2.41-2.87a34.08 34.08 0 0 0 -3.62.75c-3.58.85-8.49 2-9.85 1.14a.72.72 0 0 1 -.34-.45s0 0 0 0a.78.78 0 0 0 .37.51c1.39.88 6.31-.28 9.91-1.13a31.62 31.62 0 0 1 3.61-.75c2-.16 2.16 1.21 2.32 2.8 0 .23 0 .47.08.7a76.35 76.35 0 0 1 -.37 8.59 0 0 0 0 0 0 0z" fill="#fff"/><path d="m48.58 266.11a10.37 10.37 0 0 0 -.83-1.75c-.34-.47.19-1.68.08-2.29a.57.57 0 0 1 .44.75l.59-2.53a.33.33 0 0 1 .36-.25s.2-.42.46-.08.46.14.5.55.13 1.5.13 1.5.22-.15.25.1.13 2 .18 2.38-.28 1.06-.3 1.48c0 0 1.4 8.64 1.36 9.23a42.71 42.71 0 0 1 -1.32 9.89 3.08 3.08 0 0 0 .08 1.72 7.44 7.44 0 0 1 .81 2.68 2.58 2.58 0 0 1 -2.54 2.62c-2 0-5-3.33-2.58-6.31a8.11 8.11 0 0 1 .94-2.86 19.2 19.2 0 0 0 1.52-7.6c-.18-1.88-.24-7.99-.13-9.23z" fill="#b29476"/><path d="m48.42 265.71a8 8 0 0 0 -.39-2c-.27-.45.68-.89.39-1.55l-1 .76a.86.86 0 0 0 0 1 19.42 19.42 0 0 1 1 1.79z" fill="#b29476"/><path d="m51.37 289.49a7.44 7.44 0 0 0 -.81-2.68s-1.28 2.72.81 2.68z" fill="#b29476" opacity=".2"/></svg>