<?xml version="1.0" encoding="utf-8"?>
<!-- Generator: Adobe Illustrator 28.0.0, SVG Export Plug-In . SVG Version: 6.00 Build 0)  -->
<svg version="1.1" id="Layer_1" xmlns:v="https://vecta.io/nano"
	 xmlns="http://www.w3.org/2000/svg" xmlns:xlink="http://www.w3.org/1999/xlink" x="0px" y="0px" viewBox="0 0 24 24"
	 style="enable-background:new 0 0 24 24;" xml:space="preserve">
<style type="text/css">
	.st0{fill:#FFFFFF;}
</style>
<path class="st0" d="M7,3C4.8,3,3,4.8,3,7s1.8,4,4,4s4-1.8,4-4S9.2,3,7,3z M15,3c-1.1,0-2,0.9-2,2v4c0,1.1,0.9,2,2,2h4
	c1.1,0,2-0.9,2-2V5c0-1.1-0.9-2-2-2H15z M7,13c-2.2,0-4,1.8-4,4s1.8,4,4,4s4-1.8,4-4S9.2,13,7,13z M17,13c-2.2,0-4,1.8-4,4
	s1.8,4,4,4s4-1.8,4-4S19.2,13,17,13z"/>
</svg>
