<svg xmlns="http://www.w3.org/2000/svg" viewBox="0 0 128 128" xmlns:v="https://vecta.io/nano"><path d="M68.9 32.93h-9.8a6.38 6.38 0 0 0-6.37 6.37v2.07H46a4.06 4.06 0 0 0-4.06 4.06v4.5a4.05 4.05 0 0 0 3.42 4L47 86.67a6.32 6.32 0 0 0 6.32 6h21.3a6.32 6.32 0 0 0 6.32-6l1.69-32.75a4.05 4.05 0 0 0 3.42-4v-4.5A4.06 4.06 0 0 0 82 41.37h-6.73V39.3a6.38 6.38 0 0 0-6.37-6.37zM56.23 39.3a2.88 2.88 0 0 1 2.87-2.87h9.8a2.88 2.88 0 0 1 2.87 2.87v2.07H56.23zm21.24 47.19a2.81 2.81 0 0 1-2.82 2.67h-21.3a2.81 2.81 0 0 1-2.82-2.67L48.85 54h30.3zM82 44.87a.56.56 0 0 1 .56.56v4.5a.56.56 0 0 1-.56.55H46a.56.56 0 0 1-.56-.55v-4.5a.56.56 0 0 1 .56-.56zm-24 39A1.76 1.76 0 0 0 59.64 82l-1.11-20.55a1.752 1.752 0 0 0-3.5.18l1.11 20.58A1.77 1.77 0 0 0 58 83.87zm12.11 0a1.76 1.76 0 0 0 1.75-1.66L73 61.63a1.752 1.752 0 0 0-3.5-.18L68.36 82A1.76 1.76 0 0 0 70 83.87zm32.04 26.88a8.61 8.61 0 0 0 8.6-8.6v-76.3a8.61 8.61 0 0 0-8.6-8.6h-76.3a8.61 8.61 0 0 0-8.6 8.6v76.3a8.61 8.61 0 0 0 8.6 8.6zm-81.4-8.6v-76.3a5.11 5.11 0 0 1 5.1-5.1h76.3a5.11 5.11 0 0 1 5.1 5.1v76.3a5.11 5.11 0 0 1-5.1 5.1h-76.3a5.11 5.11 0 0 1-5.1-5.1z"/></svg>