<?xml version="1.0" encoding="utf-8"?>
<!-- Generator: Adobe Illustrator 28.0.0, SVG Export Plug-In . SVG Version: 6.00 Build 0)  -->
<svg version="1.1" id="Layer_1" xmlns:v="https://vecta.io/nano"
	 xmlns="http://www.w3.org/2000/svg" xmlns:xlink="http://www.w3.org/1999/xlink" x="0px" y="0px" viewBox="0 0 24 24"
	 style="enable-background:new 0 0 24 24;" xml:space="preserve">
<style type="text/css">
	.st0{fill:#FFFFFF;}
</style>
<path class="st0" d="M19.4,0.4c-0.3,0-0.6,0.2-0.8,0.4L15.7,5H3C2.4,5,2,5.4,2,6v12c0,0.6,0.4,1,1,1h8v2H8c-0.6,0-1,0.4-1,1
	s0.4,1,1,1h8c0.6,0,1-0.4,1-1s-0.4-1-1-1h-3v-2h8c0.6,0,1-0.4,1-1V6.5l1.5-2.2c0.3-0.5,0.2-1.1-0.3-1.4l-3.3-2.3
	C19.8,0.5,19.6,0.4,19.4,0.4L19.4,0.4z M19.6,2.8L21.3,4l-4.6,6.6L16,10.1l-1-0.7C15,9.5,19.6,2.8,19.6,2.8z M4,7h10.3l-1.5,2.2
	c-0.1,0.2-0.2,0.4-0.2,0.6L12.5,13c0,0,0,0,0,0H6c-0.6,0-1,0.4-1,1s0.4,1,1,1h6.5c0.3,0,0.6-0.1,0.8-0.4l3.8-1.6
	c0.3-0.1,0.5-0.2,0.6-0.4L20,9.4V17H4V7z"/>
</svg>
